<svg width="98" height="20" viewBox="0 0 98 20" fill="none" xmlns="http://www.w3.org/2000/svg">
    <path d="M5.89277 4.97826C4.55937 4.97826 3.48404 5.63043 2.68831 6.54348L2.62379 5.54348C2.60228 5.34783 2.49475 5.21739 2.30119 5.21739H0.322597C0.129039 5.21739 0 5.34783 0 5.54348V19.6739C0 19.8696 0.129039 20 0.322597 20H2.51625C2.70981 20 2.83885 19.8696 2.83885 19.6739V14.8043C3.59158 15.6087 4.60238 16.1522 5.89277 16.1522C8.83915 16.1522 10.9898 13.6739 10.9898 10.5652C10.9898 7.45652 8.83915 4.97826 5.89277 4.97826ZM5.54866 13.5435C4.0002 13.5435 2.86036 12.1522 2.86036 10.5435C2.86036 8.93478 4.0002 7.58696 5.54866 7.58696C7.11863 7.58696 8.25848 8.84783 8.25848 10.5435C8.25848 12.2609 7.11863 13.5435 5.54866 13.5435Z" fill="black"/>
    <path d="M22.841 5.21739H20.8624C20.6689 5.21739 20.5613 5.34783 20.5398 5.54348L20.4753 6.54348C19.6796 5.63043 18.6043 4.97826 17.2709 4.97826C14.3245 4.97826 12.1738 7.45652 12.1738 10.5652C12.1738 13.6739 14.3245 16.1522 17.2709 16.1522C18.6473 16.1522 19.7011 15.5217 20.4538 14.6304L20.5398 15.5435C20.5613 15.7391 20.6689 15.8696 20.8624 15.8696H22.841C23.0346 15.8696 23.1636 15.7391 23.1636 15.5435V5.54348C23.1636 5.34783 23.0346 5.21739 22.841 5.21739ZM17.615 13.5435C16.045 13.5435 14.9051 12.2609 14.9051 10.5435C14.9051 8.84783 16.045 7.58696 17.615 7.58696C19.1634 7.58696 20.3033 8.93478 20.3033 10.5435C20.3033 12.1522 19.1634 13.5435 17.615 13.5435Z" fill="black"/>
    <path d="M30.2164 13.5C28.6249 13.5 27.5066 12.2391 27.5066 10.5652C27.5066 8.8913 28.6249 7.63043 30.2164 7.63043C31.1842 7.63043 31.8079 8.04348 32.41 8.58696C32.5821 8.73913 32.7326 8.76087 32.8832 8.6087L34.1951 7.32609C34.3241 7.19565 34.3456 7.02174 34.2166 6.86956C33.2273 5.71739 31.7864 4.97826 30.1519 4.97826C27.1195 4.97826 24.7753 7.43478 24.7753 10.5652C24.7753 13.6957 27.1195 16.1522 30.1519 16.1522C31.8294 16.1522 33.2918 15.413 34.2811 14.2609C34.4101 14.1087 34.3886 13.9348 34.2596 13.8043L32.9477 12.5435C32.7972 12.3913 32.6466 12.3913 32.4746 12.5435C31.8724 13.087 31.2272 13.5 30.2164 13.5Z" fill="black"/>
    <path d="M46.2382 15.4783L41.8939 9.63043L45.6145 5.6087C45.8081 5.41304 45.722 5.21739 45.4424 5.21739H42.9692C42.8187 5.21739 42.6896 5.26087 42.5821 5.3913L38.7109 9.60869V0.326086C38.7109 0.130434 38.5819 0 38.3883 0H36.1947C36.0011 0 35.8721 0.130434 35.8721 0.326086V15.5435C35.8721 15.7391 36.0011 15.8696 36.1947 15.8696H38.3883C38.5819 15.8696 38.7109 15.7391 38.7109 15.5435V13.0652L40.1734 11.5L43.2918 15.6739C43.3993 15.8261 43.5069 15.8696 43.6789 15.8696H46.0446C46.3027 15.8696 46.3887 15.6957 46.2382 15.4783Z" fill="black"/>
    <path d="M49.9622 8.19565C49.9622 7.65217 50.4568 7.28261 51.1235 7.28261C51.8762 7.28261 52.3709 7.56522 53.1881 8.1087C53.3817 8.26087 53.5322 8.30435 53.6613 8.13043L54.4785 7.04348C54.586 6.91304 54.6291 6.73913 54.5 6.58696C53.6183 5.54348 52.2418 4.97826 50.8869 4.97826C48.9944 4.97826 47.2308 6.17391 47.2308 8.21739C47.2308 11.8043 52.3279 11.1522 52.3279 12.8478C52.3279 13.5217 51.6612 13.7391 50.973 13.7391C50.1342 13.7391 49.2094 13.3261 48.3492 12.7609C48.1556 12.6087 48.0051 12.5652 47.876 12.7391L47.0373 13.9348C46.9513 14.0652 46.9082 14.2174 47.0373 14.3696C47.79 15.2609 49.2524 16.1522 51.059 16.1522C52.9946 16.1522 55.0807 14.9565 55.0807 12.8913C55.0807 8.97826 49.9622 9.93478 49.9622 8.19565Z" fill="black"/>
    <path d="M69.7209 4.97826C68.0004 4.97826 66.753 5.80435 66.0003 6.95652C65.3336 5.67391 64.1507 4.97826 62.7528 4.97826C61.2258 4.97826 60.1075 5.82609 59.4193 6.95652V6.93478L59.3333 5.54348C59.3117 5.34783 59.2042 5.21739 59.0107 5.21739H56.903C56.7095 5.21739 56.5804 5.34783 56.5804 5.54348V15.5435C56.5804 15.7391 56.7095 15.8696 56.903 15.8696H59.0967C59.2902 15.8696 59.4193 15.7391 59.4193 15.5435V9.71739C59.4193 9.21739 60.1505 7.63043 61.742 7.63043C62.7743 7.63043 63.7206 8.23913 63.7206 10V15.5435C63.7206 15.7391 63.8496 15.8696 64.0432 15.8696H66.2368C66.4304 15.8696 66.5594 15.7391 66.5594 15.5435V9.67391C66.5594 8.91304 67.2906 7.63043 68.8821 7.63043C69.8929 7.63043 70.8392 8.23913 70.8392 10V15.5435C70.8392 15.7391 70.9683 15.8696 71.1618 15.8696H73.3555C73.549 15.8696 73.6781 15.7391 73.6781 15.5435V9.47826C73.6781 6.63044 72.0221 4.97826 69.7209 4.97826Z" fill="black"/>
    <path d="M77.071 3.19565C77.9313 3.19565 78.6195 2.47826 78.6195 1.6087C78.6195 0.739129 77.9313 0.0217386 77.071 0.0217386C76.1893 0.0217386 75.5011 0.739129 75.5011 1.6087C75.5011 2.47826 76.1893 3.19565 77.071 3.19565ZM75.6516 5.54348V15.5435C75.6516 15.7391 75.7807 15.8696 75.9742 15.8696H78.1679C78.3614 15.8696 78.4905 15.7391 78.4905 15.5435V5.54348C78.4905 5.34783 78.3614 5.21739 78.1679 5.21739H75.9742C75.7807 5.21739 75.6516 5.34783 75.6516 5.54348Z" fill="black"/>
    <path d="M86.1814 5.21739H84.6759V2.28261C84.6759 2.08696 84.5469 1.95652 84.3533 1.95652H82.1597C81.9661 1.95652 81.8371 2.08696 81.8371 2.28261V5.21739H80.3316C80.1381 5.21739 80.009 5.34783 80.009 5.54348V7.23913C80.009 7.43478 80.1381 7.56522 80.3316 7.56522H81.8371V15.5435C81.8371 15.7391 81.9661 15.8696 82.1597 15.8696H84.3533C84.5469 15.8696 84.6759 15.7391 84.6759 15.5435V7.56522H86.1814C86.3749 7.56522 86.504 7.43478 86.504 7.23913V5.54348C86.504 5.34783 86.3749 5.21739 86.1814 5.21739Z" fill="black"/>
    <path d="M94.1934 4.97826C92.6664 4.97826 91.5481 5.82609 90.8599 6.95652V0.326086C90.8599 0.130434 90.7308 0 90.5373 0H88.3436C88.15 0 88.021 0.130434 88.021 0.326086V15.5435C88.021 15.7391 88.15 15.8696 88.3436 15.8696H90.5373C90.7308 15.8696 90.8599 15.7391 90.8599 15.5435V9.71739C90.8599 9.21739 91.5911 7.63043 93.1826 7.63043C94.2149 7.63043 95.1611 8.23913 95.1611 10V15.5435C95.1611 15.7391 95.2902 15.8696 95.4837 15.8696H97.6774C97.871 15.8696 98 15.7391 98 15.5435V9.47826C98 6.63044 96.344 4.97826 94.1934 4.97826Z" fill="black"/>
</svg>
